<svg width="19" height="16" viewBox="0 0 19 16" fill="none" xmlns="http://www.w3.org/2000/svg">
<path id="Vector" d="M13.8501 3.92536L13.6827 3.77464L13.5154 3.92536L12.298 5.02203L12.0922 5.20742L12.2976 5.39321L14.0438 6.97222H5.91182H5.66182V7.22222V8.77778V9.02778H5.91182H14.0419L12.298 10.5987L12.0925 10.7838L12.2973 10.9696L13.5148 12.074L13.6822 12.2259L13.8501 12.0746L18.1672 8.18575L18.3735 8L18.1672 7.81425L13.8501 3.92536ZM9.36556 13.1944H2.70807V2.80556H9.36556H9.61556V2.55556V1V0.75H9.36556H2.45807C1.39543 0.75 0.481201 1.538 0.481201 2.55556V13.4444C0.481201 14.462 1.39543 15.25 2.45807 15.25H9.36556H9.61556V15V13.4444V13.1944H9.36556Z" fill="white" stroke="white" stroke-width="0.5"/>
</svg>
